<svg width="800" height="800" xmlns="http://www.w3.org/2000/svg">
 <g>
  <title>Layer 1</title>
  <rect fill="#7cffeb" stroke-width="0" x="356.88037" y="54.28031" width="382.86895" height="64.84924" id="svg_16" rx="12" stroke="#000"/>
  <rect fill="#fff" x="551.71181" y="276.95168" width="0" height="1.28045" id="svg_2" stroke="#000"/>
  <rect fill="#7cffeb" stroke-width="0" x="198.44201" y="200.1911" width="382.86899" height="64.84924" id="svg_17" rx="12" stroke="#000"/>
  <rect fill="#7cffeb" stroke-width="0" x="47.02761" y="367.51866" width="382.86898" height="64.84924" id="svg_18" rx="12" stroke="#000"/>
  <rect fill="#000000" stroke-width="0" x="43.39632" y="530.92222" width="401.24667" height="64.84924" id="svg_19" rx="34" stroke="#000"/>
  <rect fill="#7cffeb" stroke-width="0" x="297.69839" y="178.34734" width="155.34757" height="22.74499" id="svg_20" rx="12" transform="matrix(2.19823 -2.25795 2.13295 2.32706 -670.377 652.256)" stroke="#000"/>
  <rect fill="#ffffff" stroke-width="0" x="295.31794" y="232.88776" width="155.34757" height="22.74499" id="svg_21" rx="12" transform="matrix(1.85616 -2.00193 1.80104 2.06321 -536.806 644.322)" stroke="#000"/>
  <rect fill="#000000" stroke-width="0" x="294.27516" y="287.9405" width="155.34757" height="22.74499" id="svg_22" rx="12" transform="matrix(1.88981 -1.96854 1.83369 2.02879 -653.562 693.933)" stroke="#000"/>
  <rect fill="#ffffff" stroke-width="0" x="40.33337" y="693.72687" width="401.24667" height="64.84924" id="svg_23" rx="12" stroke="#000"/>
 </g>

</svg>